<svg xmlns="http://www.w3.org/2000/svg" version="1.1" xmlns:xlink="http://www.w3.org/1999/xlink" xmlns:svgjs="http://svgjs.dev/svgjs" viewBox="0 0 800 800" id="qqquad"><g shape-rendering="crispEdges" stroke-linejoin="round" fill="none" stroke-width="1.5" stroke="hsl(0, 0%, 20%)"><polygon points="800,100 800,0 700,0"></polygon><polygon points="700,100 700,0 600,100"></polygon><polygon points="700,100 600,200 700,200"></polygon><polygon points="800,200 700,100 700,200"></polygon><polygon points="600,0 500,0 500,100"></polygon><polygon points="400,100 500,0 400,0"></polygon><polygon points="450,150 500,150 500,100"></polygon><polygon points="450,100 400,150 450,150"></polygon><polygon points="450,200 400,150 450,150"></polygon><polygon points="450,150 450,200 500,150"></polygon><polygon points="500,100 500,200 600,200"></polygon><polygon points="550,250 600,250 550,200"></polygon><polygon points="500,250 550,250 550,200"></polygon><polygon points="550,300 550,250 500,300"></polygon><polygon points="600,250 550,300 550,250"></polygon><polygon points="500,200 450,250 500,250"></polygon><polygon points="450,200 450,250 400,200"></polygon><polygon points="450,250 450,300 400,250"></polygon><polygon points="500,250 450,250 450,300"></polygon><polygon points="450,350 450,300 500,350"></polygon><polygon points="450,350 400,350 450,300"></polygon><polygon points="400,350 450,400 400,400"></polygon><polygon points="500,400 450,400 500,350"></polygon><polygon points="600,350 550,350 600,300"></polygon><polygon points="550,300 550,350 500,350"></polygon><polygon points="550,400 550,350 500,400"></polygon><polygon points="550,400 550,350 600,350"></polygon><polygon points="800,200 700,300 800,300"></polygon><polygon points="700,300 600,300 700,200"></polygon><polygon points="700,300 650,350 650,300"></polygon><polygon points="650,300 650,350 600,300"></polygon><polygon points="650,400 600,350 600,400"></polygon><polygon points="650,350 700,350 650,400"></polygon><polygon points="800,300 800,400 700,300"></polygon><polygon points="400,100 400,0 300,100"></polygon><polygon points="300,100 300,0 200,0"></polygon><polygon points="300,100 200,200 200,100"></polygon><polygon points="350,100 400,150 350,150"></polygon><polygon points="300,100 350,150 300,150"></polygon><polygon points="300,200 350,150 300,150"></polygon><polygon points="400,200 350,200 400,150"></polygon><polygon points="200,0 100,0 100,100"></polygon><polygon points="100,0 0,100 100,100"></polygon><polygon points="0,100 100,100 100,200"></polygon><polygon points="200,100 150,150 200,150"></polygon><polygon points="150,100 100,150 100,100"></polygon><polygon points="100,150 150,150 100,200"></polygon><polygon points="200,150 150,200 150,150"></polygon><polygon points="100,200 200,300 200,200"></polygon><polygon points="100,200 100,300 0,300"></polygon><polygon points="100,400 0,300 0,400"></polygon><polygon points="150,350 200,350 200,300"></polygon><polygon points="150,300 150,350 100,350"></polygon><polygon points="150,350 100,400 100,350"></polygon><polygon points="200,400 150,400 150,350"></polygon><polygon points="350,200 400,200 400,250"></polygon><polygon points="350,200 300,200 300,250"></polygon><polygon points="300,250 300,300 350,250"></polygon><polygon points="400,300 400,250 350,250"></polygon><polygon points="300,250 250,250 250,200"></polygon><polygon points="200,200 250,250 250,200"></polygon><polygon points="250,300 200,300 200,250"></polygon><polygon points="250,250 250,300 300,300"></polygon><polygon points="300,300 300,350 250,350"></polygon><polygon points="250,350 250,300 200,350"></polygon><polygon points="250,350 250,400 200,350"></polygon><polygon points="300,350 250,350 250,400"></polygon><polygon points="350,350 400,300 400,350"></polygon><polygon points="350,350 350,300 300,350"></polygon><polygon points="300,350 300,400 350,400"></polygon><polygon points="350,350 400,400 350,400"></polygon><polygon points="350,450 400,400 400,450"></polygon><polygon points="350,450 300,400 350,400"></polygon><polygon points="350,500 350,450 300,450"></polygon><polygon points="350,450 400,500 350,500"></polygon><polygon points="300,450 250,450 250,400"></polygon><polygon points="250,450 200,450 250,400"></polygon><polygon points="250,450 200,500 250,500"></polygon><polygon points="300,450 300,500 250,500"></polygon><polygon points="300,550 250,550 250,500"></polygon><polygon points="250,500 200,500 250,550"></polygon><polygon points="200,550 250,600 250,550"></polygon><polygon points="250,550 250,600 300,550"></polygon><polygon points="350,550 400,500 400,550"></polygon><polygon points="350,500 350,550 300,550"></polygon><polygon points="350,600 350,550 300,550"></polygon><polygon points="400,550 400,600 350,600"></polygon><polygon points="200,400 200,500 100,400"></polygon><polygon points="100,400 100,500 0,400"></polygon><polygon points="100,600 0,500 0,600"></polygon><polygon points="150,550 200,500 200,550"></polygon><polygon points="100,500 100,550 150,550"></polygon><polygon points="150,550 150,600 100,600"></polygon><polygon points="150,550 200,600 200,550"></polygon><polygon points="200,600 200,700 100,600"></polygon><polygon points="100,600 100,700 0,700"></polygon><polygon points="100,800 100,700 0,800"></polygon><polygon points="200,800 100,700 200,700"></polygon><polygon points="400,700 300,600 300,700"></polygon><polygon points="300,650 250,650 300,600"></polygon><polygon points="250,650 250,600 200,600"></polygon><polygon points="250,650 250,700 200,700"></polygon><polygon points="300,650 300,700 250,650"></polygon><polygon points="300,700 200,800 200,700"></polygon><polygon points="400,800 400,700 300,700"></polygon><polygon points="800,400 700,400 800,500"></polygon><polygon points="700,500 600,500 700,400"></polygon><polygon points="600,600 700,600 700,500"></polygon><polygon points="700,600 800,500 800,600"></polygon><polygon points="550,450 600,400 600,450"></polygon><polygon points="550,450 500,450 500,400"></polygon><polygon points="500,450 550,450 500,500"></polygon><polygon points="600,450 550,500 550,450"></polygon><polygon points="500,450 450,450 450,400"></polygon><polygon points="450,400 400,400 400,450"></polygon><polygon points="450,500 400,500 450,450"></polygon><polygon points="500,500 500,450 450,450"></polygon><polygon points="450,550 450,500 500,500"></polygon><polygon points="400,550 450,550 400,500"></polygon><polygon points="450,550 400,550 450,600"></polygon><polygon points="500,550 450,600 500,600"></polygon><polygon points="600,550 600,500 550,550"></polygon><polygon points="550,550 500,500 500,550"></polygon><polygon points="550,550 550,600 500,600"></polygon><polygon points="600,600 550,600 550,550"></polygon><polygon points="600,650 600,600 550,650"></polygon><polygon points="500,650 500,600 550,600"></polygon><polygon points="550,700 550,650 500,700"></polygon><polygon points="550,700 600,700 550,650"></polygon><polygon points="500,650 450,600 500,600"></polygon><polygon points="400,600 450,650 450,600"></polygon><polygon points="450,700 400,700 400,650"></polygon><polygon points="500,700 500,650 450,650"></polygon><polygon points="500,700 400,700 500,800"></polygon><polygon points="600,700 600,800 500,700"></polygon><polygon points="800,600 700,600 800,700"></polygon><polygon points="700,700 600,600 700,600"></polygon><polygon points="700,800 700,700 600,800"></polygon><polygon points="700,700 800,800 700,800"></polygon></g><g fill="hsl(220, 62%, 45%)" stroke-width="3" stroke="hsl(220, 43%, 13%)"></g></svg>