<svg xmlns="http://www.w3.org/2000/svg" version="1.1" xmlns:xlink="http://www.w3.org/1999/xlink" xmlns:svgjs="http://svgjs.dev/svgjs" viewBox="0 0 800 800" id="qqquad"><g shape-rendering="crispEdges" stroke-linejoin="round" fill="none" stroke-width="2" stroke="	hsl(187, 51%, 59%)"><polygon points="800,0 700,100 800,100"></polygon><polygon points="700,100 600,0 700,0"></polygon><polygon points="700,200 600,100 600,200"></polygon><polygon points="800,100 800,200 700,100"></polygon><polygon points="600,0 600,100 500,0"></polygon><polygon points="500,100 500,0 400,100"></polygon><polygon points="500,200 500,100 400,100"></polygon><polygon points="600,100 500,100 600,200"></polygon><polygon points="600,200 600,300 500,300"></polygon><polygon points="500,200 500,250 450,250"></polygon><polygon points="450,200 450,250 400,200"></polygon><polygon points="400,300 450,250 400,250"></polygon><polygon points="500,300 450,300 450,250"></polygon><polygon points="450,300 450,350 500,350"></polygon><polygon points="450,350 450,300 400,300"></polygon><polygon points="400,400 450,400 450,350"></polygon><polygon points="500,350 500,400 450,350"></polygon><polygon points="600,350 550,350 600,300"></polygon><polygon points="550,300 550,350 500,350"></polygon><polygon points="500,350 500,400 550,400"></polygon><polygon points="600,400 550,350 550,400"></polygon><polygon points="700,200 800,200 700,300"></polygon><polygon points="700,200 700,300 600,200"></polygon><polygon points="700,350 700,300 650,300"></polygon><polygon points="600,300 600,350 650,350"></polygon><polygon points="650,350 600,350 600,400"></polygon><polygon points="650,350 700,400 700,350"></polygon><polygon points="700,300 800,300 800,400"></polygon><polygon points="300,100 400,100 400,0"></polygon><polygon points="300,100 300,0 200,0"></polygon><polygon points="200,200 200,100 300,100"></polygon><polygon points="400,200 400,100 300,200"></polygon><polygon points="200,0 200,100 100,100"></polygon><polygon points="100,100 0,100 0,0"></polygon><polygon points="100,100 100,200 0,100"></polygon><polygon points="100,100 200,200 100,200"></polygon><polygon points="100,300 200,200 200,300"></polygon><polygon points="100,300 0,200 0,300"></polygon><polygon points="0,300 100,400 100,300"></polygon><polygon points="100,300 200,300 200,400"></polygon><polygon points="400,250 350,200 350,250"></polygon><polygon points="350,250 300,250 350,200"></polygon><polygon points="350,300 300,300 300,250"></polygon><polygon points="350,250 350,300 400,250"></polygon><polygon points="200,200 300,300 200,300"></polygon><polygon points="300,300 300,400 200,300"></polygon><polygon points="400,300 300,300 400,400"></polygon><polygon points="400,450 350,400 400,400"></polygon><polygon points="300,450 300,400 350,400"></polygon><polygon points="350,500 350,450 300,500"></polygon><polygon points="400,500 350,450 350,500"></polygon><polygon points="200,400 300,500 300,400"></polygon><polygon points="300,500 300,600 200,600"></polygon><polygon points="400,500 400,600 300,600"></polygon><polygon points="200,500 100,400 100,500"></polygon><polygon points="100,400 100,500 0,500"></polygon><polygon points="100,600 0,500 100,500"></polygon><polygon points="200,600 100,500 100,600"></polygon><polygon points="200,600 200,700 100,700"></polygon><polygon points="0,600 100,700 100,600"></polygon><polygon points="100,700 100,800 0,800"></polygon><polygon points="200,800 100,700 200,700"></polygon><polygon points="300,600 400,600 400,700"></polygon><polygon points="250,600 300,650 300,600"></polygon><polygon points="250,650 250,600 200,600"></polygon><polygon points="250,650 200,700 200,650"></polygon><polygon points="250,650 300,650 250,700"></polygon><polygon points="200,700 300,800 200,800"></polygon><polygon points="400,800 300,700 300,800"></polygon><polygon points="800,500 800,400 700,400"></polygon><polygon points="600,400 700,400 600,500"></polygon><polygon points="600,600 700,600 600,500"></polygon><polygon points="700,500 800,600 700,600"></polygon><polygon points="600,400 600,450 550,400"></polygon><polygon points="550,400 550,450 500,400"></polygon><polygon points="550,500 500,450 500,500"></polygon><polygon points="600,450 600,500 550,450"></polygon><polygon points="400,500 500,500 400,400"></polygon><polygon points="500,500 500,600 400,500"></polygon><polygon points="600,600 600,500 500,600"></polygon><polygon points="600,700 500,700 500,600"></polygon><polygon points="500,600 400,600 400,700"></polygon><polygon points="500,700 400,800 400,700"></polygon><polygon points="600,700 500,700 500,800"></polygon><polygon points="700,700 700,600 800,700"></polygon><polygon points="700,600 700,700 600,700"></polygon><polygon points="700,800 600,700 700,700"></polygon><polygon points="800,800 800,700 700,700"></polygon></g><g fill="hsl(220, 62%, 45%)" stroke-width="3" stroke="hsl(220, 43%, 13%)"></g></svg>