<svg xmlns="http://www.w3.org/2000/svg" version="1.1" xmlns:xlink="http://www.w3.org/1999/xlink" viewBox="0 0 700 700" style="overflow: hidden; display: block;" width="700" height="700"><defs><linearGradient id="two-927" x1="350" y1="-350" x2="350" y2="350" spreadMethod="pad" gradientUnits="userSpaceOnUse"><stop offset="0%" stop-color="hsl(185, 100%, 35%)" stop-opacity="1"></stop><stop offset="100%" stop-color="	hsl(187, 51%, 59%)" stop-opacity="1"></stop></linearGradient></defs><g id="two-0" transform="matrix(1 0 0 1 0 0)" opacity="1"><path transform="matrix(1 0 0 1 350 350)" id="two-926" d="M 265.227733 77.877889 C 260.796821 115.122906 315.328956 158.186817 292.767829 188.150459 C 267.764587 221.357496 200.901375 168.705426 166.883658 192.594008 C 140.113894 211.392792 160.42608 272.660884 129.966761 284.58751 C 97.467799 297.312777 69.1254 235.747755 34.402689 239.27596 C 2.696405 242.497664 -13.615257 284.449637 -42.753616 297.357924 C -74.066531 311.22954 -113.51361 331.002676 -144.691905 316.831077 C -175.832215 302.676744 -184.07445 259.009875 -196.986161 227.334147 C -208.129058 199.997769 -201.429317 164.489933 -218.711266 140.557195 C -237.531555 114.494103 -293.397107 119.616198 -300.973992 88.373937 C -308.93876 55.532291 -251.247441 33.733733 -249.235847 0 C -247.438287 -30.144457 -291.424877 -54.244438 -285.756461 -83.905668 C -280.434229 -111.755415 -243.977623 -123.576984 -224.832531 -144.491094 C -207.831075 -163.063496 -187.881129 -180.920916 -176.009193 -203.125437 C -158.059665 -236.697104 -171.043669 -287.696551 -143.283231 -313.746512 C -119.82171 -335.762438 -79.94637 -330.036331 -48.224848 -335.411184 C -16.130099 -340.849277 20.445961 -360.459091 49.804462 -346.397646 C 84.806916 -329.632993 85.406413 -274.557315 112.856786 -247.121892 C 130.920991 -229.067525 156.070758 -218.39858 178.209552 -205.664788 C 203.495602 -191.120757 237.528802 -186.96352 256.671162 -164.952541 C 275.312799 -143.51732 277.204871 -111.001037 285.334245 -83.781694 C 293.481768 -56.50158 309.342427 -28.265116 305.926289 -0.000001 C 302.446957 28.787982 268.653308 49.08346 265.227733 77.877889 Z " fill="url(#two-927)" stroke="undefined" stroke-width="1" stroke-opacity="1" fill-opacity="1" visibility="visible" stroke-linecap="butt" stroke-linejoin="miter" stroke-miterlimit="4"></path></g></svg>