<svg xmlns="http://www.w3.org/2000/svg" version="1.1" xmlns:xlink="http://www.w3.org/1999/xlink" viewBox="0 0 700 700" style="overflow: hidden; display: block;" width="700" height="700"><defs><linearGradient id="two-927" x1="350" y1="-350" x2="350" y2="350" spreadMethod="pad" gradientUnits="userSpaceOnUse"><stop offset="0%" stop-color="hsl(185, 100%, 35%)" stop-opacity="1"></stop><stop offset="100%" stop-color="	hsl(187, 51%, 59%)" stop-opacity="1"></stop></linearGradient></defs><g id="two-0" transform="matrix(1 0 0 1 0 0)" opacity="1"><path transform="matrix(1 0 0 1 350 350)" id="two-935" d="M 238.745489 70.102 C 245.580485 109.511547 288.299106 142.763212 284.025521 182.532119 C 280.555236 214.825725 259.023008 252.298224 228.698614 263.932271 C 190.037062 278.764895 147.236014 224.826183 106.847458 233.963297 C 79.600052 240.127486 64.41186 271.829841 41.350062 287.596 C 13.208909 306.834653 -14.934388 343.396565 -48.642071 338.313029 C -82.534183 333.20168 -90.52043 280.2805 -120.062942 262.90117 C -145.949179 247.672761 -188.267083 262.746675 -208.222458 240.301525 C -229.907432 215.910978 -202.14852 168.638848 -221.399879 142.285062 C -243.085853 112.598456 -304.544954 126.8865 -322.068859 94.567949 C -337.079739 66.884057 -313.810894 31.163485 -309.276406 0 C -305.100297 -28.700504 -303.37499 -58.857557 -295.749344 -86.839843 C -288.071096 -115.015149 -284.674023 -149.391668 -263.123991 -169.099521 C -239.562643 -190.646755 -200.335148 -185.601079 -170.365666 -196.612459 C -147.660705 -204.95471 -120.991857 -209.714845 -103.313462 -226.224926 C -74.511288 -253.12365 -85.22679 -319.813652 -47.722898 -331.920043 C -16.474269 -342.007213 10.507069 -298.838911 41.344434 -287.556857 C 67.169866 -278.108453 99.073777 -282.523224 122.300882 -267.801579 C 145.784572 -252.917307 160.173619 -225.635032 175.299149 -202.306004 C 188.907892 -181.31641 195.140286 -155.111896 209.637674 -134.725954 C 224.780165 -113.432882 258.354751 -103.061626 264.539917 -77.675929 C 270.868926 -51.699856 245.870181 -26.378015 241.509784 -0.000001 C 237.733961 22.841662 234.789245 47.290896 238.745489 70.102 Z " fill="url(#two-927)" stroke="undefined" stroke-width="1" stroke-opacity="1" fill-opacity="1" visibility="visible" stroke-linecap="butt" stroke-linejoin="miter" stroke-miterlimit="4"></path></g></svg>